<mxfile host="app.diagrams.net" agent="Mozilla/5.0 (Windows NT 10.0; Win64; x64) AppleWebKit/537.36 (KHTML, like Gecko) Chrome/130.0.0.0 Safari/537.36 QuarkPC/4.2.0.417" version="28.0.1">
  <diagram name="第 1 页" id="SJ8_2GKKuErfEg54q6yJ">
    <mxGraphModel dx="1523" dy="1007" grid="1" gridSize="10" guides="1" tooltips="1" connect="1" arrows="1" fold="1" page="1" pageScale="1" pageWidth="827" pageHeight="1169" math="0" shadow="0">
      <root>
        <mxCell id="0" />
        <mxCell id="1" parent="0" />
        <mxCell id="AeVLayJYJsohxERcXX6E-83" value="" style="group" vertex="1" connectable="0" parent="1">
          <mxGeometry x="40" y="140" width="978" height="760" as="geometry" />
        </mxCell>
        <mxCell id="AeVLayJYJsohxERcXX6E-42" value="事件发现" style="whiteSpace=wrap;strokeWidth=2;" vertex="1" parent="AeVLayJYJsohxERcXX6E-83">
          <mxGeometry x="483" width="124" height="42.57261410788382" as="geometry" />
        </mxCell>
        <mxCell id="AeVLayJYJsohxERcXX6E-43" value="事件类型" style="rhombus;strokeWidth=2;whiteSpace=wrap;" vertex="1" parent="AeVLayJYJsohxERcXX6E-83">
          <mxGeometry x="486" y="78.83817427385893" width="118" height="56.76348547717843" as="geometry" />
        </mxCell>
        <mxCell id="AeVLayJYJsohxERcXX6E-44" value="▶ 施工人员发现设备异常" style="whiteSpace=wrap;strokeWidth=2;" vertex="1" parent="AeVLayJYJsohxERcXX6E-83">
          <mxGeometry x="426" y="193.15352697095437" width="238" height="42.57261410788382" as="geometry" />
        </mxCell>
        <mxCell id="AeVLayJYJsohxERcXX6E-45" value="▶ 发现人员误入禁入区" style="whiteSpace=wrap;strokeWidth=2;" vertex="1" parent="AeVLayJYJsohxERcXX6E-83">
          <mxGeometry x="104" y="193.15352697095437" width="222" height="42.57261410788382" as="geometry" />
        </mxCell>
        <mxCell id="AeVLayJYJsohxERcXX6E-46" value="▶ 发现敏感设施被破坏" style="whiteSpace=wrap;strokeWidth=2;" vertex="1" parent="AeVLayJYJsohxERcXX6E-83">
          <mxGeometry x="748" y="193.15352697095437" width="222" height="42.57261410788382" as="geometry" />
        </mxCell>
        <mxCell id="AeVLayJYJsohxERcXX6E-47" value="▶ 停止设备使用" style="whiteSpace=wrap;strokeWidth=2;" vertex="1" parent="AeVLayJYJsohxERcXX6E-83">
          <mxGeometry x="458" y="286.9709543568465" width="174" height="42.57261410788382" as="geometry" />
        </mxCell>
        <mxCell id="AeVLayJYJsohxERcXX6E-48" value="▶ 停止施工，保护现场" style="whiteSpace=wrap;strokeWidth=2;" vertex="1" parent="AeVLayJYJsohxERcXX6E-83">
          <mxGeometry x="748" y="368.9626556016598" width="222" height="42.57261410788382" as="geometry" />
        </mxCell>
        <mxCell id="AeVLayJYJsohxERcXX6E-49" value="▶ 现场劝阻停止移动" style="whiteSpace=wrap;strokeWidth=2;" vertex="1" parent="AeVLayJYJsohxERcXX6E-83">
          <mxGeometry x="220" y="307.8630705394191" width="206" height="42.57261410788382" as="geometry" />
        </mxCell>
        <mxCell id="AeVLayJYJsohxERcXX6E-50" value="▶ 联系机场安保部门" style="whiteSpace=wrap;strokeWidth=2;" vertex="1" parent="AeVLayJYJsohxERcXX6E-83">
          <mxGeometry y="307.8630705394191" width="206" height="42.57261410788382" as="geometry" />
        </mxCell>
        <mxCell id="AeVLayJYJsohxERcXX6E-51" value="▶ 通知专职空防安全员" style="whiteSpace=wrap;strokeWidth=2;" vertex="1" parent="AeVLayJYJsohxERcXX6E-83">
          <mxGeometry x="434" y="368.9626556016598" width="222" height="42.57261410788382" as="geometry" />
        </mxCell>
        <mxCell id="AeVLayJYJsohxERcXX6E-52" value="▶ 联系专业部门处理" style="whiteSpace=wrap;strokeWidth=2;" vertex="1" parent="AeVLayJYJsohxERcXX6E-83">
          <mxGeometry x="442" y="450.954356846473" width="206" height="42.57261410788382" as="geometry" />
        </mxCell>
        <mxCell id="AeVLayJYJsohxERcXX6E-53" value="▶ 等待专业部门处置" style="whiteSpace=wrap;strokeWidth=2;" vertex="1" parent="AeVLayJYJsohxERcXX6E-83">
          <mxGeometry x="442" y="532.9460580912863" width="206" height="42.57261410788382" as="geometry" />
        </mxCell>
        <mxCell id="AeVLayJYJsohxERcXX6E-54" value="▶ 安保人员到达现场" style="whiteSpace=wrap;strokeWidth=2;" vertex="1" parent="AeVLayJYJsohxERcXX6E-83">
          <mxGeometry x="112" y="417.8423236514523" width="206" height="42.57261410788382" as="geometry" />
        </mxCell>
        <mxCell id="AeVLayJYJsohxERcXX6E-55" value="▶ 恢复施工或更换设备" style="whiteSpace=wrap;strokeWidth=2;" vertex="1" parent="AeVLayJYJsohxERcXX6E-83">
          <mxGeometry x="434" y="614.9377593360996" width="222" height="42.57261410788382" as="geometry" />
        </mxCell>
        <mxCell id="AeVLayJYJsohxERcXX6E-56" value="▶ 协助带离，记录经过" style="whiteSpace=wrap;strokeWidth=2;" vertex="1" parent="AeVLayJYJsohxERcXX6E-83">
          <mxGeometry x="104" y="512.448132780083" width="222" height="42.57261410788382" as="geometry" />
        </mxCell>
        <mxCell id="AeVLayJYJsohxERcXX6E-57" value="▶ 配合抢修并提交报告" style="whiteSpace=wrap;strokeWidth=2;" vertex="1" parent="AeVLayJYJsohxERcXX6E-83">
          <mxGeometry x="748" y="480.9128630705394" width="222" height="42.57261410788382" as="geometry" />
        </mxCell>
        <mxCell id="AeVLayJYJsohxERcXX6E-58" value="事件结束" style="whiteSpace=wrap;strokeWidth=2;" vertex="1" parent="AeVLayJYJsohxERcXX6E-83">
          <mxGeometry x="483" y="717.4273858921161" width="124" height="42.57261410788382" as="geometry" />
        </mxCell>
        <mxCell id="AeVLayJYJsohxERcXX6E-59" value="▶ 批评教育或清退出场" style="whiteSpace=wrap;strokeWidth=2;" vertex="1" parent="AeVLayJYJsohxERcXX6E-83">
          <mxGeometry x="104" y="614.9377593360996" width="222" height="42.57261410788382" as="geometry" />
        </mxCell>
        <mxCell id="AeVLayJYJsohxERcXX6E-60" value="▶ 处罚责任人并组织学习" style="whiteSpace=wrap;strokeWidth=2;" vertex="1" parent="AeVLayJYJsohxERcXX6E-83">
          <mxGeometry x="740" y="614.9377593360996" width="238" height="42.57261410788382" as="geometry" />
        </mxCell>
        <mxCell id="AeVLayJYJsohxERcXX6E-61" value="" style="curved=1;startArrow=none;endArrow=block;exitX=0.5;exitY=1;entryX=0.5;entryY=0;rounded=0;" edge="1" parent="AeVLayJYJsohxERcXX6E-83" source="AeVLayJYJsohxERcXX6E-42" target="AeVLayJYJsohxERcXX6E-43">
          <mxGeometry relative="1" as="geometry">
            <Array as="points" />
          </mxGeometry>
        </mxCell>
        <mxCell id="AeVLayJYJsohxERcXX6E-62" value="电磁干扰" style="curved=1;startArrow=none;endArrow=block;exitX=0.5;exitY=1;entryX=0.5;entryY=-0.01;rounded=0;exitDx=0;exitDy=0;" edge="1" parent="AeVLayJYJsohxERcXX6E-83" source="AeVLayJYJsohxERcXX6E-43" target="AeVLayJYJsohxERcXX6E-44">
          <mxGeometry x="0.076" y="4" relative="1" as="geometry">
            <Array as="points" />
            <mxPoint as="offset" />
          </mxGeometry>
        </mxCell>
        <mxCell id="AeVLayJYJsohxERcXX6E-63" value="人员误入" style="curved=1;startArrow=none;endArrow=block;exitX=0;exitY=0.5;entryX=0.5;entryY=-0.01;rounded=0;exitDx=0;exitDy=0;" edge="1" parent="AeVLayJYJsohxERcXX6E-83" source="AeVLayJYJsohxERcXX6E-43" target="AeVLayJYJsohxERcXX6E-45">
          <mxGeometry relative="1" as="geometry">
            <Array as="points" />
          </mxGeometry>
        </mxCell>
        <mxCell id="AeVLayJYJsohxERcXX6E-64" value="设施破坏" style="curved=1;startArrow=none;endArrow=block;exitX=1;exitY=0.64;entryX=0.5;entryY=-0.01;rounded=0;" edge="1" parent="AeVLayJYJsohxERcXX6E-83" source="AeVLayJYJsohxERcXX6E-43" target="AeVLayJYJsohxERcXX6E-46">
          <mxGeometry relative="1" as="geometry">
            <Array as="points" />
          </mxGeometry>
        </mxCell>
        <mxCell id="AeVLayJYJsohxERcXX6E-65" value="" style="curved=1;startArrow=none;endArrow=block;exitX=0.5;exitY=0.99;entryX=0.5;entryY=-0.01;rounded=0;" edge="1" parent="AeVLayJYJsohxERcXX6E-83" source="AeVLayJYJsohxERcXX6E-44" target="AeVLayJYJsohxERcXX6E-47">
          <mxGeometry relative="1" as="geometry">
            <Array as="points" />
          </mxGeometry>
        </mxCell>
        <mxCell id="AeVLayJYJsohxERcXX6E-66" value="" style="curved=1;startArrow=none;endArrow=block;exitX=0.5;exitY=0.99;entryX=0.5;entryY=-0.01;rounded=0;" edge="1" parent="AeVLayJYJsohxERcXX6E-83" source="AeVLayJYJsohxERcXX6E-46" target="AeVLayJYJsohxERcXX6E-48">
          <mxGeometry relative="1" as="geometry">
            <Array as="points" />
          </mxGeometry>
        </mxCell>
        <mxCell id="AeVLayJYJsohxERcXX6E-67" value="" style="curved=1;startArrow=none;endArrow=block;exitX=0.75;exitY=1;entryX=0.5;entryY=-0.01;rounded=0;exitDx=0;exitDy=0;" edge="1" parent="AeVLayJYJsohxERcXX6E-83" source="AeVLayJYJsohxERcXX6E-45" target="AeVLayJYJsohxERcXX6E-49">
          <mxGeometry relative="1" as="geometry">
            <Array as="points" />
          </mxGeometry>
        </mxCell>
        <mxCell id="AeVLayJYJsohxERcXX6E-68" value="" style="curved=1;startArrow=none;endArrow=block;exitX=0.25;exitY=1;entryX=0.5;entryY=0;rounded=0;entryDx=0;entryDy=0;exitDx=0;exitDy=0;" edge="1" parent="AeVLayJYJsohxERcXX6E-83" source="AeVLayJYJsohxERcXX6E-45" target="AeVLayJYJsohxERcXX6E-50">
          <mxGeometry relative="1" as="geometry">
            <Array as="points" />
            <mxPoint x="67" y="294.8547717842326" as="targetPoint" />
          </mxGeometry>
        </mxCell>
        <mxCell id="AeVLayJYJsohxERcXX6E-69" value="" style="curved=0;startArrow=none;endArrow=block;exitX=0.5;exitY=0.99;entryX=0.5;entryY=0;rounded=0;entryDx=0;entryDy=0;" edge="1" parent="AeVLayJYJsohxERcXX6E-83" source="AeVLayJYJsohxERcXX6E-47" target="AeVLayJYJsohxERcXX6E-51">
          <mxGeometry relative="1" as="geometry">
            <Array as="points" />
          </mxGeometry>
        </mxCell>
        <mxCell id="AeVLayJYJsohxERcXX6E-70" value="" style="curved=1;startArrow=none;endArrow=block;exitX=0;exitY=0.5;entryX=1;entryY=0.5;rounded=0;entryDx=0;entryDy=0;exitDx=0;exitDy=0;" edge="1" parent="AeVLayJYJsohxERcXX6E-83" source="AeVLayJYJsohxERcXX6E-48" target="AeVLayJYJsohxERcXX6E-51">
          <mxGeometry relative="1" as="geometry">
            <Array as="points" />
          </mxGeometry>
        </mxCell>
        <mxCell id="AeVLayJYJsohxERcXX6E-71" value="" style="curved=1;startArrow=none;endArrow=block;exitX=0.5;exitY=0.99;entryX=0.5;entryY=-0.01;rounded=0;" edge="1" parent="AeVLayJYJsohxERcXX6E-83" source="AeVLayJYJsohxERcXX6E-51" target="AeVLayJYJsohxERcXX6E-52">
          <mxGeometry relative="1" as="geometry">
            <Array as="points" />
          </mxGeometry>
        </mxCell>
        <mxCell id="AeVLayJYJsohxERcXX6E-72" value="" style="curved=1;startArrow=none;endArrow=block;exitX=0.5;exitY=0.99;entryX=0.5;entryY=-0.01;rounded=0;" edge="1" parent="AeVLayJYJsohxERcXX6E-83" source="AeVLayJYJsohxERcXX6E-52" target="AeVLayJYJsohxERcXX6E-53">
          <mxGeometry relative="1" as="geometry">
            <Array as="points" />
          </mxGeometry>
        </mxCell>
        <mxCell id="AeVLayJYJsohxERcXX6E-73" value="" style="curved=1;startArrow=none;endArrow=block;exitX=0.5;exitY=1;entryX=0.25;entryY=0;rounded=0;exitDx=0;exitDy=0;entryDx=0;entryDy=0;" edge="1" parent="AeVLayJYJsohxERcXX6E-83" source="AeVLayJYJsohxERcXX6E-50" target="AeVLayJYJsohxERcXX6E-54">
          <mxGeometry relative="1" as="geometry">
            <Array as="points" />
            <mxPoint x="67" y="337.4273858921162" as="sourcePoint" />
          </mxGeometry>
        </mxCell>
        <mxCell id="AeVLayJYJsohxERcXX6E-74" value="" style="curved=1;startArrow=none;endArrow=block;exitX=0.5;exitY=0.99;entryX=0.75;entryY=0;rounded=0;entryDx=0;entryDy=0;" edge="1" parent="AeVLayJYJsohxERcXX6E-83" source="AeVLayJYJsohxERcXX6E-49" target="AeVLayJYJsohxERcXX6E-54">
          <mxGeometry relative="1" as="geometry">
            <Array as="points" />
          </mxGeometry>
        </mxCell>
        <mxCell id="AeVLayJYJsohxERcXX6E-75" value="" style="curved=1;startArrow=none;endArrow=block;exitX=0.5;exitY=0.99;entryX=0.5;entryY=-0.01;rounded=0;" edge="1" parent="AeVLayJYJsohxERcXX6E-83" source="AeVLayJYJsohxERcXX6E-53" target="AeVLayJYJsohxERcXX6E-55">
          <mxGeometry relative="1" as="geometry">
            <Array as="points" />
          </mxGeometry>
        </mxCell>
        <mxCell id="AeVLayJYJsohxERcXX6E-76" value="" style="curved=1;startArrow=none;endArrow=block;exitX=0.5;exitY=0.99;entryX=0.5;entryY=-0.01;rounded=0;" edge="1" parent="AeVLayJYJsohxERcXX6E-83" source="AeVLayJYJsohxERcXX6E-54" target="AeVLayJYJsohxERcXX6E-56">
          <mxGeometry relative="1" as="geometry">
            <Array as="points" />
          </mxGeometry>
        </mxCell>
        <mxCell id="AeVLayJYJsohxERcXX6E-77" value="" style="curved=1;startArrow=none;endArrow=block;exitX=0.5;exitY=0.99;entryX=0.5;entryY=-0.01;rounded=0;" edge="1" parent="AeVLayJYJsohxERcXX6E-83" source="AeVLayJYJsohxERcXX6E-48" target="AeVLayJYJsohxERcXX6E-57">
          <mxGeometry relative="1" as="geometry">
            <Array as="points" />
          </mxGeometry>
        </mxCell>
        <mxCell id="AeVLayJYJsohxERcXX6E-78" value="" style="curved=1;startArrow=none;endArrow=block;exitX=0.5;exitY=0.99;entryX=0.5;entryY=0;rounded=0;entryDx=0;entryDy=0;" edge="1" parent="AeVLayJYJsohxERcXX6E-83" source="AeVLayJYJsohxERcXX6E-55" target="AeVLayJYJsohxERcXX6E-58">
          <mxGeometry relative="1" as="geometry">
            <Array as="points" />
          </mxGeometry>
        </mxCell>
        <mxCell id="AeVLayJYJsohxERcXX6E-79" value="" style="curved=1;startArrow=none;endArrow=block;exitX=0.5;exitY=0.99;entryX=0.5;entryY=-0.01;rounded=0;" edge="1" parent="AeVLayJYJsohxERcXX6E-83" source="AeVLayJYJsohxERcXX6E-56" target="AeVLayJYJsohxERcXX6E-59">
          <mxGeometry relative="1" as="geometry">
            <Array as="points" />
          </mxGeometry>
        </mxCell>
        <mxCell id="AeVLayJYJsohxERcXX6E-80" value="" style="curved=1;startArrow=none;endArrow=block;exitX=0.5;exitY=0.99;entryX=0;entryY=0.5;rounded=0;entryDx=0;entryDy=0;" edge="1" parent="AeVLayJYJsohxERcXX6E-83" source="AeVLayJYJsohxERcXX6E-59" target="AeVLayJYJsohxERcXX6E-58">
          <mxGeometry relative="1" as="geometry">
            <Array as="points" />
          </mxGeometry>
        </mxCell>
        <mxCell id="AeVLayJYJsohxERcXX6E-81" value="" style="curved=1;startArrow=none;endArrow=block;exitX=0.5;exitY=0.99;entryX=0.5;entryY=-0.01;rounded=0;" edge="1" parent="AeVLayJYJsohxERcXX6E-83" source="AeVLayJYJsohxERcXX6E-57" target="AeVLayJYJsohxERcXX6E-60">
          <mxGeometry relative="1" as="geometry">
            <Array as="points" />
          </mxGeometry>
        </mxCell>
        <mxCell id="AeVLayJYJsohxERcXX6E-82" value="" style="curved=1;startArrow=none;endArrow=block;exitX=0.5;exitY=0.99;entryX=1;entryY=0.5;rounded=0;entryDx=0;entryDy=0;" edge="1" parent="AeVLayJYJsohxERcXX6E-83" source="AeVLayJYJsohxERcXX6E-60" target="AeVLayJYJsohxERcXX6E-58">
          <mxGeometry relative="1" as="geometry">
            <Array as="points" />
          </mxGeometry>
        </mxCell>
      </root>
    </mxGraphModel>
  </diagram>
</mxfile>
